<svg width="9" height="16" viewBox="0 0 9 16" fill="none" xmlns="http://www.w3.org/2000/svg">
<path d="M8.97363 7.7959C8.96484 7.48828 8.85059 7.22461 8.61328 6.9873L1.77539 0.298828C1.57324 0.105469 1.33594 0 1.0459 0C0.457031 0 0 0.457031 0 1.0459C0 1.32715 0.114258 1.59082 0.316406 1.79297L6.46875 7.7959L0.316406 13.7988C0.114258 14.001 0 14.2559 0 14.5459C0 15.1348 0.457031 15.5918 1.0459 15.5918C1.32715 15.5918 1.57324 15.4863 1.77539 15.293L8.61328 8.5957C8.85938 8.36719 8.97363 8.10352 8.97363 7.7959Z" fill="white"/>
</svg>
