<svg width="16" height="20" viewBox="0 0 16 20" fill="none" xmlns="http://www.w3.org/2000/svg">
<path d="M2.86523 19.0459H12.2344C14.124 19.0459 15.0996 18.0527 15.0996 16.1543V8.28809H8.50781C7.40918 8.28809 6.88184 7.76074 6.88184 6.66211V0H2.86523C0.984375 0 0 0.993164 0 2.90039V16.1543C0 18.0527 0.984375 19.0459 2.86523 19.0459ZM8.6748 7.00488H15.0117C14.959 6.60059 14.6689 6.22266 14.2119 5.75684L9.4043 0.887695C8.96484 0.439453 8.56934 0.140625 8.16504 0.0878906V6.49512C8.17383 6.83789 8.34082 7.00488 8.6748 7.00488ZM4.13965 12.1816C3.76172 12.1816 3.48926 11.9092 3.48926 11.5576C3.48926 11.2061 3.76172 10.9336 4.13965 10.9336H10.9863C11.3467 10.9336 11.6279 11.2061 11.6279 11.5576C11.6279 11.9092 11.3467 12.1816 10.9863 12.1816H4.13965ZM4.13965 15.4775C3.76172 15.4775 3.48926 15.2051 3.48926 14.8535C3.48926 14.502 3.76172 14.2295 4.13965 14.2295H10.9863C11.3467 14.2295 11.6279 14.502 11.6279 14.8535C11.6279 15.2051 11.3467 15.4775 10.9863 15.4775H4.13965Z" fill="currentColor"/>
</svg>
